# xmcd CD database file
#
# Track frame offsets:
#	150
#	60274
#	132111
#
# Disc length: 2683 seconds
#
# Revision: 0
# Processed by: cddbd v1.5PL3 Copyright (c) Steve Scherf et al.
# Submitted via: CDex 1.50
#
DISCID=1c0a7903
DTITLE=Ipso Facto Expansion Orchestra - Ipso Facto Expansion Orchestra
DYEAR=1900
DGENRE=Jazz
TTITLE0=Boom ChaChaChaChaCha
TTITLE1=Ulysses
TTITLE2=Terra Nostra
EXTD=
EXTT0=
EXTT1=
EXTT2=
PLAYORDER=
